<mxfile host="65bd71144e">
    <diagram id="vbcPmjKhsG3dbDW5VzCG" name="Page-1">
        <mxGraphModel dx="1818" dy="436" grid="1" gridSize="10" guides="1" tooltips="1" connect="1" arrows="1" fold="1" page="1" pageScale="1" pageWidth="850" pageHeight="1100" math="0" shadow="0">
            <root>
                <mxCell id="0"/>
                <mxCell id="1" parent="0"/>
                <mxCell id="2" value="App" style="whiteSpace=wrap;html=1;" parent="1" vertex="1">
                    <mxGeometry x="365" y="40" width="120" height="60" as="geometry"/>
                </mxCell>
                <mxCell id="3" value="Header/search" style="whiteSpace=wrap;html=1;" parent="1" vertex="1">
                    <mxGeometry x="40" y="450" width="120" height="60" as="geometry"/>
                </mxCell>
                <mxCell id="4" value="card container (maybe not even a component)" style="whiteSpace=wrap;html=1;" parent="1" vertex="1">
                    <mxGeometry x="30" y="390" width="120" height="60" as="geometry"/>
                </mxCell>
                <mxCell id="5" value="card" style="whiteSpace=wrap;html=1;" parent="1" vertex="1">
                    <mxGeometry x="200" y="240" width="120" height="60" as="geometry"/>
                </mxCell>
                <mxCell id="6" value="state: search term - initialize to empty" style="text;html=1;align=center;verticalAlign=middle;resizable=0;points=[];autosize=1;strokeColor=none;fillColor=none;" parent="1" vertex="1">
                    <mxGeometry x="485" y="60" width="210" height="20" as="geometry"/>
                </mxCell>
                <mxCell id="7" value="props: set search term, search term (for placeholder)" style="text;html=1;align=center;verticalAlign=middle;resizable=0;points=[];autosize=1;strokeColor=none;fillColor=none;" parent="1" vertex="1">
                    <mxGeometry x="-50" y="460" width="300" height="20" as="geometry"/>
                </mxCell>
                <mxCell id="9" value="prop: hourly weather info" style="text;html=1;align=center;verticalAlign=middle;resizable=0;points=[];autosize=1;strokeColor=none;fillColor=none;" parent="1" vertex="1">
                    <mxGeometry x="320" y="260" width="150" height="20" as="geometry"/>
                </mxCell>
                <mxCell id="12" value="" style="whiteSpace=wrap;html=1;" parent="1" vertex="1">
                    <mxGeometry x="310" y="420" width="500" height="330" as="geometry"/>
                </mxCell>
                <mxCell id="13" value="hourly banner" style="whiteSpace=wrap;html=1;" vertex="1" parent="1">
                    <mxGeometry x="210" y="130" width="120" height="60" as="geometry"/>
                </mxCell>
                <mxCell id="14" value="daily banner" style="whiteSpace=wrap;html=1;" vertex="1" parent="1">
                    <mxGeometry x="540" y="140" width="120" height="60" as="geometry"/>
                </mxCell>
                <mxCell id="15" value="card" style="whiteSpace=wrap;html=1;" vertex="1" parent="1">
                    <mxGeometry x="520" y="240" width="120" height="60" as="geometry"/>
                </mxCell>
                <mxCell id="16" value="prop: dailyweather info" style="text;html=1;align=center;verticalAlign=middle;resizable=0;points=[];autosize=1;strokeColor=none;fillColor=none;" vertex="1" parent="1">
                    <mxGeometry x="645" y="260" width="140" height="20" as="geometry"/>
                </mxCell>
                <mxCell id="17" value="prop: hourly weather info" style="text;html=1;align=center;verticalAlign=middle;resizable=0;points=[];autosize=1;strokeColor=none;fillColor=none;" vertex="1" parent="1">
                    <mxGeometry x="330" y="160" width="150" height="20" as="geometry"/>
                </mxCell>
                <mxCell id="18" value="prop: daily weather info" style="text;html=1;align=center;verticalAlign=middle;resizable=0;points=[];autosize=1;strokeColor=none;fillColor=none;" vertex="1" parent="1">
                    <mxGeometry x="665" y="160" width="140" height="20" as="geometry"/>
                </mxCell>
            </root>
        </mxGraphModel>
    </diagram>
</mxfile>